<svg width="105" height="100" fill="none" xmlns="http://www.w3.org/2000/svg"><path d="M105 50c0 28.86-23.52 50-52.5 50C23.51 100 0 76.58 0 47.72c0-9.04 2.32-17.59 6.39-25a.8.8 0 0 1 .23-.36c-2.29-3.41-3.29-12.05 2.5-17.82 0 2.41 1.47 6.54 3.11 9.63 1.32 2.46 2.73 4.23 3.74 4 2.28-.54 10.27-.54 11.41 0 1.88-2.4 6.44-9.09 13.7-9.09-4.06 4.05-15.7 18.19 4.57 18.19h4.57l-13.7 9.09s1.55 3 0 4.55c-1.74-1.74-9.13 1.86-9.13 6.81 0 4.95 5.29 11.36 15.98 11.36 10.68 0 7.98-4.54 13.69-4.54 5.71 0 6.85 4.54 6.85 4.54-7.86 0-13.56 9.09-22.83 9.09 4.57 3.37 7.58 4.55 13.7 4.55 15.11 0 27.39-12.22 27.39-27.27 0-6.09-2.01-11.69-5.39-16.23 6.12 4.55 10.23 11.55 10.96 19.5.82-3.18 1.28-6.59 1.28-10.09 0-13.68-5.84-31.77-15.98-38.63C87.65 4.35 105 18.46 105 45.45V50Z" fill="#FF9800"/></svg>