<svg width="102" height="100" fill="none" xmlns="http://www.w3.org/2000/svg"><path d="M50.76 0s30.01-1.32 45.92 28.25H48.21s-9.15-.29-16.95 10.6c-2.26 4.56-4.66 9.27-1.95 18.54C25.4 50.91 8.6 22.22 8.6 22.22S20.45 1.18 50.76 0Z" fill="#E16B5A"/><path d="M95.12 75.09s-13.84 26.14-47.91 24.86c4.2-7.14 24.24-41.16 24.24-41.16s4.83-7.62-.88-19.69c-2.9-4.19-11.7-8.59-21.24-10.93 7.67-.07 47.25 0 47.25 0s12.66 20.59-1.46 46.92Z" fill="#FFD464"/><path d="M6.62 75.29S-9.55 50.46 8.63 22.17l24.22 41.17s4.32 7.92 17.83 9.1c5.16-.37 10.52-.68 17.36-7.61-3.77 6.55-20.72 35.16-20.72 35.16s-24.51.45-40.7-24.7Z" fill="#74B340"/><ellipse cx="50.646" cy="50.406" rx="23.064" ry="22.656" fill="#FFF"/><ellipse cx="50.638" cy="50.406" rx="18.292" ry="17.969" fill="#2995CC"/><path d="M50.64 32.44c-.37 0-.73.01-1.08.03 9.59.55 17.2 8.37 17.2 17.93 0 9.57-7.61 17.39-17.2 17.94.35.02.71.03 1.08.03 10.1 0 18.29-8.04 18.29-17.97 0-9.92-8.19-17.96-18.29-17.96Z" fill="#268CBF"/></svg>