<svg width="658" height="465" fill="none" xmlns="http://www.w3.org/2000/svg"><defs><linearGradient x1="887.542" y1="205.906" x2="333.587" y2="-162.475" id="b" gradientUnits="userSpaceOnUse"><stop stop-color="#151515"/><stop offset="1" stop-color="#3D3D3D"/></linearGradient><filter id="a" x="0" y="0" width="658" height="465" filterUnits="userSpaceOnUse" color-interpolation-filters="sRGB"><feFlood flood-opacity="0" result="BackgroundImageFix"/><feColorMatrix in="SourceAlpha" values="0 0 0 0 0 0 0 0 0 0 0 0 0 0 0 0 0 0 127 0" result="hardAlpha"/><feOffset dy="30"/><feGaussianBlur stdDeviation="13.333"/><feComposite in2="hardAlpha" operator="out" k2="-1" k3="1"/><feColorMatrix values="0 0 0 0 0.18431 0 0 0 0 0.23137 0 0 0 0 0.50588 0 0 0 0.2 0"/><feBlend in2="BackgroundImageFix" result="effect_dropShadow_1"/><feBlend in="SourceGraphic" in2="effect_dropShadow_1" result="shape"/></filter></defs><g filter="url(#a)"><rect x="40" y="10" rx="26" width="578" height="385" fill="#777"/><rect x="40" y="10" rx="26" width="578" height="385"/></g><rect x="42" y="12" rx="25" width="574.23" height="381.865" fill="url(#b)"/><rect x="42" y="12" rx="25" width="574.23" height="381.865"/><g opacity=".1" style="mix-blend-mode:normal"><rect x="94.03" y="26.303" rx="5" width="471.463" height="353.756" fill="#2A2A2A"/><rect x="94.03" y="26.303" rx="5" width="471.463" height="353.756"/></g><rect x="61.03" y="29.303" rx="8" width="536" height="346" fill="#E8EAF6"/><rect x="61.03" y="29.303" rx="8" width="536" height="346"/><mask id="c" mask-type="alpha" maskUnits="userSpaceOnUse" x="61.03" y="29.303" width="536" height="346"><rect x="61.03" y="29.303" rx="8" width="536" height="346" fill="#E8EAF6"/><rect x="61.03" y="29.303" rx="8" width="536" height="346" stroke="#979797" stroke-opacity="0" stroke-width="0"/></mask><g mask="url(#c)"><path fill="#5267DF" d="M57.5 29.5h547v59h-547z"/><path d="M57.5 29.5h547v59h-547z"/><g opacity=".245" style="mix-blend-mode:normal"><circle cx="99.5" cy="59.5" r="16" fill="#FFF"/><circle cx="99.5" cy="59.5" r="16"/></g><g opacity=".104" style="mix-blend-mode:normal"><circle cx="560.5" cy="59.5" r="16" fill="#FFF"/><circle cx="560.5" cy="59.5" r="16"/></g><g opacity=".75" style="mix-blend-mode:normal"><rect x="130.5" y="49.5" rx="3" width="120" height="6" fill="#FFF"/><rect x="130.5" y="49.5" rx="3" width="120" height="6"/></g><g opacity=".25" style="mix-blend-mode:normal"><rect x="130.5" y="63.5" rx="3" width="64" height="6" fill="#FFF"/><rect x="130.5" y="63.5" rx="3" width="64" height="6"/></g></g><g mask="url(#c)"><rect x="118.03" y="122.303" rx="8" width="261" height="316" fill="#FFF"/><rect x="118.03" y="122.303" rx="8" width="261" height="316"/><rect x="413.03" y="122.303" rx="8" width="128" height="316" fill="#FFF"/><rect x="413.03" y="122.303" rx="8" width="128" height="316"/><g opacity=".5" style="mix-blend-mode:normal"><rect x="196.5" y="160.5" rx="3" width="120" height="6" fill="#242A45"/><rect x="196.5" y="160.5" rx="3" width="120" height="6"/></g></g><circle cx="165.5" cy="170.5" r="16" fill="#F98E5D"/><circle cx="165.5" cy="170.5" r="16"/><g opacity=".25" style="mix-blend-mode:normal"><rect x="433.5" y="144.5" rx="3" width="88" height="6" fill="#242A45"/><rect x="433.5" y="144.5" rx="3" width="88" height="6"/></g><g opacity=".25" style="mix-blend-mode:normal"><rect x="433.5" y="164.5" rx="3" width="88" height="6" fill="#242A45"/><rect x="433.5" y="164.5" rx="3" width="88" height="6"/></g><g opacity=".25" style="mix-blend-mode:normal"><rect x="433.5" y="184.5" rx="3" width="88" height="6" fill="#242A45"/><rect x="433.5" y="184.5" rx="3" width="88" height="6"/></g><g opacity=".25" style="mix-blend-mode:normal"><rect x="433.5" y="204.5" rx="3" width="88" height="6" fill="#242A45"/><rect x="433.5" y="204.5" rx="3" width="88" height="6"/></g><g opacity=".25" style="mix-blend-mode:normal"><rect x="433.5" y="238.5" rx="3" width="88" height="6" fill="#242A45"/><rect x="433.5" y="238.5" rx="3" width="88" height="6"/></g><g opacity=".25" style="mix-blend-mode:normal"><rect x="433.5" y="258.5" rx="3" width="88" height="6" fill="#242A45"/><rect x="433.5" y="258.5" rx="3" width="88" height="6"/></g><g opacity=".25" style="mix-blend-mode:normal"><rect x="433.5" y="278.5" rx="3" width="88" height="6" fill="#242A45"/><rect x="433.5" y="278.5" rx="3" width="88" height="6"/></g><g opacity=".25" style="mix-blend-mode:normal"><rect x="196.5" y="174.5" rx="3" width="64" height="6" fill="#242A45"/><rect x="196.5" y="174.5" rx="3" width="64" height="6"/></g><circle cx="165.5" cy="226.5" r="16" fill="#6AC6D6"/><circle cx="165.5" cy="226.5" r="16"/><g opacity=".5" style="mix-blend-mode:normal"><rect x="196.5" y="216.5" rx="3" width="120" height="6" fill="#242A45"/><rect x="196.5" y="216.5" rx="3" width="120" height="6"/></g><g opacity=".25" style="mix-blend-mode:normal"><rect x="196.5" y="230.5" rx="3" width="64" height="6" fill="#242A45"/><rect x="196.5" y="230.5" rx="3" width="64" height="6"/></g><circle cx="165.5" cy="282.5" r="16" fill="#A47ED4"/><circle cx="165.5" cy="282.5" r="16"/><g opacity=".5" style="mix-blend-mode:normal"><rect x="196.5" y="272.5" rx="3" width="120" height="6" fill="#242A45"/><rect x="196.5" y="272.5" rx="3" width="120" height="6"/></g><g opacity=".25" style="mix-blend-mode:normal"><rect x="196.5" y="286.5" rx="3" width="64" height="6" fill="#242A45"/><rect x="196.5" y="286.5" rx="3" width="64" height="6"/></g><circle cx="165.5" cy="338.5" r="16" fill="#EC7878"/><circle cx="165.5" cy="338.5" r="16"/><g opacity=".5" style="mix-blend-mode:normal"><rect x="196.5" y="328.5" rx="3" width="120" height="6" fill="#242A45"/><rect x="196.5" y="328.5" rx="3" width="120" height="6"/></g><g opacity=".25" style="mix-blend-mode:normal"><rect x="196.5" y="342.5" rx="3" width="64" height="6" fill="#242A45"/><rect x="196.5" y="342.5" rx="3" width="64" height="6"/></g></svg>