<svg width="478.041" height="423" fill="none" xmlns="http://www.w3.org/2000/svg"><defs><filter id="b" x="17" y="133" width="220" height="275" filterUnits="userSpaceOnUse" color-interpolation-filters="sRGB"><feFlood flood-opacity="0" result="BackgroundImageFix"/><feColorMatrix in="SourceAlpha" values="0 0 0 0 0 0 0 0 0 0 0 0 0 0 0 0 0 0 127 0" result="hardAlpha"/><feOffset dy="5"/><feGaussianBlur stdDeviation="3.333"/><feComposite in2="hardAlpha" operator="out" k2="-1" k3="1"/><feColorMatrix values="0 0 0 0 0.28627 0 0 0 0 0.36471 0 0 0 0 0.81176 0 0 0 0.082 0"/><feBlend in2="BackgroundImageFix" result="effect_dropShadow_1"/><feBlend in="SourceGraphic" in2="effect_dropShadow_1" result="shape"/></filter><filter id="c" x="231" y="128" width="240" height="295" filterUnits="userSpaceOnUse" color-interpolation-filters="sRGB"><feFlood flood-opacity="0" result="BackgroundImageFix"/><feColorMatrix in="SourceAlpha" values="0 0 0 0 0 0 0 0 0 0 0 0 0 0 0 0 0 0 127 0" result="hardAlpha"/><feOffset dy="5"/><feGaussianBlur stdDeviation="3.333"/><feComposite in2="hardAlpha" operator="out" k2="-1" k3="1"/><feColorMatrix values="0 0 0 0 0.28627 0 0 0 0 0.36471 0 0 0 0 0.81176 0 0 0 0.082 0"/><feBlend in2="BackgroundImageFix" result="effect_dropShadow_1"/><feBlend in="SourceGraphic" in2="effect_dropShadow_1" result="shape"/></filter><filter id="d" x="241" y="133" width="220" height="275" filterUnits="userSpaceOnUse" color-interpolation-filters="sRGB"><feFlood flood-opacity="0" result="BackgroundImageFix"/><feColorMatrix in="SourceAlpha" values="0 0 0 0 0 0 0 0 0 0 0 0 0 0 0 0 0 0 127 0" result="hardAlpha"/><feOffset dy="5"/><feGaussianBlur stdDeviation="3.333"/><feComposite in2="hardAlpha" operator="out" k2="-1" k3="1"/><feColorMatrix values="0 0 0 0 0.28627 0 0 0 0 0.36471 0 0 0 0 0.81176 0 0 0 0.082 0"/><feBlend in2="BackgroundImageFix" result="effect_dropShadow_1"/><feBlend in="SourceGraphic" in2="effect_dropShadow_1" result="shape"/></filter></defs><rect rx="8" width="350" height="346" fill="#E8EAF6"/><rect rx="8" width="350" height="346"/><mask id="a" mask-type="alpha" maskUnits="userSpaceOnUse" x="0" y="0" width="350" height="346"><rect rx="8" width="350" height="346" fill="#E8EAF6"/><rect rx="8" width="350" height="346" stroke="#979797" stroke-opacity="0" stroke-width="0"/></mask><g mask="url(#a)"><path fill="#242A45" d="M-3.53.197h547v59h-547z"/><path d="M-3.53.197h547v59h-547z"/><g opacity=".245" style="mix-blend-mode:normal"><circle cx="38.47" cy="30.197" r="16" fill="#FFF"/><circle cx="38.47" cy="30.197" r="16"/></g><g opacity=".75" style="mix-blend-mode:normal"><rect x="69.47" y="20.197" rx="3" width="120" height="6" fill="#FFF"/><rect x="69.47" y="20.197" rx="3" width="120" height="6"/></g><g opacity=".25" style="mix-blend-mode:normal"><rect x="69.47" y="34.197" rx="3" width="64" height="6" fill="#FFF"/><rect x="69.47" y="34.197" rx="3" width="64" height="6"/></g></g><g filter="url(#b)"><rect x="27" y="138" rx="8" width="200" height="255" fill="#FFF"/><rect x="27" y="138" rx="8" width="200" height="255"/></g><g opacity=".5" style="mix-blend-mode:normal"><rect x="95.683" y="173" rx="3" width="101.317" height="6" fill="#242A45"/><rect x="95.683" y="173" rx="3" width="101.317" height="6"/></g><circle cx="66" cy="183" r="16" fill="#5267DF"/><circle cx="66" cy="183" r="16"/><g opacity=".25" style="mix-blend-mode:normal"><rect x="95.683" y="187" rx="3" width="54.036" height="6" fill="#242A45"/><rect x="95.683" y="187" rx="3" width="54.036" height="6"/></g><circle cx="66" cy="239" r="16" fill="#5267DF"/><circle cx="66" cy="239" r="16"/><g opacity=".5" style="mix-blend-mode:normal"><rect x="95.683" y="229" rx="3" width="101.317" height="6" fill="#242A45"/><rect x="95.683" y="229" rx="3" width="101.317" height="6"/></g><g opacity=".25" style="mix-blend-mode:normal"><rect x="95.683" y="243" rx="3" width="54.036" height="6" fill="#242A45"/><rect x="95.683" y="243" rx="3" width="54.036" height="6"/></g><circle cx="66" cy="295" r="16" fill="#5267DF"/><circle cx="66" cy="295" r="16"/><g opacity=".5" style="mix-blend-mode:normal"><rect x="95.683" y="285" rx="3" width="101.317" height="6" fill="#242A45"/><rect x="95.683" y="285" rx="3" width="101.317" height="6"/></g><g opacity=".25" style="mix-blend-mode:normal"><rect x="95.683" y="299" rx="3" width="54.036" height="6" fill="#242A45"/><rect x="95.683" y="299" rx="3" width="54.036" height="6"/></g><circle cx="66" cy="351" r="16" fill="#5267DF"/><circle cx="66" cy="351" r="16"/><g opacity=".5" style="mix-blend-mode:normal"><rect x="95.683" y="341" rx="3" width="101.317" height="6" fill="#242A45"/><rect x="95.683" y="341" rx="3" width="101.317" height="6"/></g><g opacity=".25" style="mix-blend-mode:normal"><rect x="95.683" y="355" rx="3" width="54.036" height="6" fill="#242A45"/><rect x="95.683" y="355" rx="3" width="54.036" height="6"/></g><g filter="url(#c)"><g filter="url(#d)"><rect x="251" y="138" rx="8" width="200" height="255" fill="#FFF"/><rect x="251" y="138" rx="8" width="200" height="255"/></g><g opacity=".5" style="mix-blend-mode:normal"><rect x="319.683" y="173" rx="3" width="101.317" height="6" fill="#242A45"/><rect x="319.683" y="173" rx="3" width="101.317" height="6"/></g><circle cx="290" cy="183" r="16" fill="#5267DF"/><circle cx="290" cy="183" r="16"/><g opacity=".25" style="mix-blend-mode:normal"><rect x="319.683" y="187" rx="3" width="54.036" height="6" fill="#242A45"/><rect x="319.683" y="187" rx="3" width="54.036" height="6"/></g><circle cx="290" cy="239" r="16" fill="#FA5959"/><circle cx="290" cy="239" r="16"/><g opacity=".5" style="mix-blend-mode:normal"><rect x="319.683" y="229" rx="3" width="101.317" height="6" fill="#242A45"/><rect x="319.683" y="229" rx="3" width="101.317" height="6"/></g><g opacity=".25" style="mix-blend-mode:normal"><rect x="319.683" y="243" rx="3" width="54.036" height="6" fill="#242A45"/><rect x="319.683" y="243" rx="3" width="54.036" height="6"/></g><circle cx="290" cy="295" r="16" fill="#5267DF"/><circle cx="290" cy="295" r="16"/><g opacity=".5" style="mix-blend-mode:normal"><rect x="319.683" y="285" rx="3" width="101.317" height="6" fill="#242A45"/><rect x="319.683" y="285" rx="3" width="101.317" height="6"/></g><g opacity=".25" style="mix-blend-mode:normal"><rect x="319.683" y="299" rx="3" width="54.036" height="6" fill="#242A45"/><rect x="319.683" y="299" rx="3" width="54.036" height="6"/></g><circle cx="290" cy="351" r="16" fill="#5267DF"/><circle cx="290" cy="351" r="16"/><g opacity=".5" style="mix-blend-mode:normal"><rect x="319.683" y="341" rx="3" width="101.317" height="6" fill="#242A45"/><rect x="319.683" y="341" rx="3" width="101.317" height="6"/></g><g opacity=".25" style="mix-blend-mode:normal"><rect x="319.683" y="355" rx="3" width="54.036" height="6" fill="#242A45"/><rect x="319.683" y="355" rx="3" width="54.036" height="6"/></g></g><rect x="27" y="85" rx="8" width="237" height="34" fill="#FFF"/><rect x="27" y="85" rx="8" width="237" height="34"/><circle cx="372" cy="169" r="67" fill="#495DCF" fill-opacity=".2"/><circle cx="372" cy="169" r="67" stroke="#5267DF" stroke-width="20"/><path d="M411.95 224.07h-.03c-3.96-3.96-3.96-10.19 0-14.15 3.96-3.96 10.19-3.96 14.15 0v.03l-14.12 14.12Zm63.09 34.85h.03c3.96 3.96 3.96 10.19 0 14.15-3.96 3.96-10.19 3.96-14.15 0v-.03l14.12-14.12Z" fill="none"/><path d="m419 217 49 49" stroke="#5267DF" stroke-width="20" stroke-linejoin="round" stroke-linecap="round"/></svg>