<svg width="536" height="346" fill="none" xmlns="http://www.w3.org/2000/svg"><rect rx="8" width="536" height="346" fill="#E8EAF6"/><rect rx="8" width="536" height="346"/><mask id="a" mask-type="alpha" maskUnits="userSpaceOnUse" x="0" y="0" width="536" height="346"><rect rx="8" width="536" height="346" fill="#E8EAF6"/><rect rx="8" width="536" height="346" stroke="#979797" stroke-opacity="0" stroke-width="0"/></mask><g mask="url(#a)"><path fill="#242A45" d="M-3.53.197h547v59h-547z"/><path d="M-3.53.197h547v59h-547z"/><g opacity=".245" style="mix-blend-mode:normal"><circle cx="38.47" cy="30.197" r="16" fill="#FFF"/><circle cx="38.47" cy="30.197" r="16"/></g><g opacity=".104" style="mix-blend-mode:normal"><circle cx="499.47" cy="30.197" r="16" fill="#FFF"/><circle cx="499.47" cy="30.197" r="16"/></g><g opacity=".75" style="mix-blend-mode:normal"><rect x="69.47" y="20.197" rx="3" width="120" height="6" fill="#FFF"/><rect x="69.47" y="20.197" rx="3" width="120" height="6"/></g><g opacity=".25" style="mix-blend-mode:normal"><rect x="69.47" y="34.197" rx="3" width="64" height="6" fill="#FFF"/><rect x="69.47" y="34.197" rx="3" width="64" height="6"/></g></g><g mask="url(#a)"><rect x="57" y="93" rx="8" width="261" height="316" fill="#FFF"/><rect x="57" y="93" rx="8" width="261" height="316"/><rect x="352" y="93" rx="8" width="128" height="316" fill="#FFF"/><rect x="352" y="93" rx="8" width="128" height="316"/><g opacity=".5" style="mix-blend-mode:normal"><rect x="135.47" y="131.197" rx="3" width="120" height="6" fill="#242A45"/><rect x="135.47" y="131.197" rx="3" width="120" height="6"/></g></g><circle cx="104.47" cy="141.197" r="16" fill="#F98E5D"/><circle cx="104.47" cy="141.197" r="16"/><g opacity=".25" style="mix-blend-mode:normal"><rect x="372.47" y="115.197" rx="3" width="88" height="6" fill="#242A45"/><rect x="372.47" y="115.197" rx="3" width="88" height="6"/></g><g opacity=".25" style="mix-blend-mode:normal"><rect x="372.47" y="135.197" rx="3" width="88" height="6" fill="#242A45"/><rect x="372.47" y="135.197" rx="3" width="88" height="6"/></g><g opacity=".25" style="mix-blend-mode:normal"><rect x="372.47" y="155.197" rx="3" width="88" height="6" fill="#242A45"/><rect x="372.47" y="155.197" rx="3" width="88" height="6"/></g><g opacity=".25" style="mix-blend-mode:normal"><rect x="372.47" y="175.197" rx="3" width="88" height="6" fill="#242A45"/><rect x="372.47" y="175.197" rx="3" width="88" height="6"/></g><g opacity=".25" style="mix-blend-mode:normal"><rect x="372.47" y="209.197" rx="3" width="88" height="6" fill="#242A45"/><rect x="372.47" y="209.197" rx="3" width="88" height="6"/></g><g opacity=".25" style="mix-blend-mode:normal"><rect x="372.47" y="229.197" rx="3" width="88" height="6" fill="#242A45"/><rect x="372.47" y="229.197" rx="3" width="88" height="6"/></g><g opacity=".25" style="mix-blend-mode:normal"><rect x="372.47" y="249.197" rx="3" width="88" height="6" fill="#242A45"/><rect x="372.47" y="249.197" rx="3" width="88" height="6"/></g><g opacity=".25" style="mix-blend-mode:normal"><rect x="135.47" y="145.197" rx="3" width="64" height="6" fill="#242A45"/><rect x="135.47" y="145.197" rx="3" width="64" height="6"/></g><circle cx="104.47" cy="197.197" r="16" fill="#6AC6D6"/><circle cx="104.47" cy="197.197" r="16"/><g opacity=".5" style="mix-blend-mode:normal"><rect x="135.47" y="187.197" rx="3" width="120" height="6" fill="#242A45"/><rect x="135.47" y="187.197" rx="3" width="120" height="6"/></g><g opacity=".25" style="mix-blend-mode:normal"><rect x="135.47" y="201.197" rx="3" width="64" height="6" fill="#242A45"/><rect x="135.47" y="201.197" rx="3" width="64" height="6"/></g><circle cx="104.47" cy="253.197" r="16" fill="#A47ED4"/><circle cx="104.47" cy="253.197" r="16"/><g opacity=".5" style="mix-blend-mode:normal"><rect x="135.47" y="243.197" rx="3" width="120" height="6" fill="#242A45"/><rect x="135.47" y="243.197" rx="3" width="120" height="6"/></g><g opacity=".25" style="mix-blend-mode:normal"><rect x="135.47" y="257.197" rx="3" width="64" height="6" fill="#242A45"/><rect x="135.47" y="257.197" rx="3" width="64" height="6"/></g><circle cx="104.47" cy="309.197" r="16" fill="#EC7878"/><circle cx="104.47" cy="309.197" r="16"/><g opacity=".5" style="mix-blend-mode:normal"><rect x="135.47" y="299.197" rx="3" width="120" height="6" fill="#242A45"/><rect x="135.47" y="299.197" rx="3" width="120" height="6"/></g><g opacity=".25" style="mix-blend-mode:normal"><rect x="135.47" y="313.197" rx="3" width="64" height="6" fill="#242A45"/><rect x="135.47" y="313.197" rx="3" width="64" height="6"/></g></svg>