<svg width="440" height="380" fill="none" xmlns="http://www.w3.org/2000/svg"><rect rx="8" width="350" height="346" fill="#E8EAF6"/><rect rx="8" width="350" height="346"/><mask id="a" mask-type="alpha" maskUnits="userSpaceOnUse" x="0" y="0" width="350" height="346"><rect rx="8" width="350" height="346" fill="#E8EAF6"/><rect rx="8" width="350" height="346" stroke="#979797" stroke-opacity="0" stroke-width="0"/></mask><g mask="url(#a)"><path fill="#242A45" d="M-3.53.197h547v59h-547z"/><path d="M-3.53.197h547v59h-547z"/><g opacity=".245" style="mix-blend-mode:normal"><circle cx="38.47" cy="30.197" r="16" fill="#FFF"/><circle cx="38.47" cy="30.197" r="16"/></g><g opacity=".75" style="mix-blend-mode:normal"><rect x="69.47" y="20.197" rx="3" width="120" height="6" fill="#FFF"/><rect x="69.47" y="20.197" rx="3" width="120" height="6"/></g><g opacity=".25" style="mix-blend-mode:normal"><rect x="69.47" y="34.197" rx="3" width="64" height="6" fill="#FFF"/><rect x="69.47" y="34.197" rx="3" width="64" height="6"/></g></g><rect x="27" y="85" rx="8" width="237" height="34" fill="#FFF"/><rect x="27" y="85" rx="8" width="237" height="34"/><rect x="27" y="133" rx="8" width="237" height="34" fill="#FFF"/><rect x="27" y="133" rx="8" width="237" height="34"/><rect x="27" y="181" rx="8" width="237" height="34" fill="#FFF"/><rect x="27" y="181" rx="8" width="237" height="34"/><rect x="27" y="229" rx="8" width="237" height="34" fill="#FFF"/><rect x="27" y="229" rx="8" width="237" height="34"/><rect x="27" y="277" rx="8" width="237" height="34" fill="#FFF"/><rect x="27" y="277" rx="8" width="237" height="34"/><mask id="b" mask-type="alpha" maskUnits="userSpaceOnUse" x="90.219" y="83.048" width="349.781" height="295.952"><path d="M440 83.04H90.21V379H440V83.04Z" fill="#000" fill-rule="evenodd"/></mask><g mask="url(#b)"><path d="M91.29 333.33c.67 2.02 1.71 4 3.17 5.94 25.2 33.48 119.38 44.63 212.23 37.81 48.47-3.56 82.67-24.52 104.28-43.75 5.16-4.59 9.61-9.08 13.36-13.22a61.064 61.064 0 0 0 10.91-16.89c7.64-17.78 6.17-38.32-5.13-55.16-9.57-14.28-22.72-24.83-29.51-36.55-12.93-22.31 55.44-78.73 10.95-114.38-15.71-12.58-49.16-15.49-85.66-13.53-44.43 2.37-93.37 11.95-120.29 20.04-55.71 16.74-90.58 40.98-98.54 68.26-7.96 27.27 13.31 39.62 31.88 65.65 17.5 24.53-58.55 63-47.65 95.78Z" fill="#3A499E" fill-rule="evenodd"/></g><path d="m185.45 173.87 16.98-2.87 2.57 15.79-21 6.21 1.45-19.13Z" fill="#306299" fill-rule="evenodd"/><path d="M203 172.11s13.17-.34 27-6.11l-6.5 12.25-18.75 5.75-1.75-11.89Z" fill="#FA9E89" fill-rule="evenodd"/><mask id="c" mask-type="alpha" maskUnits="userSpaceOnUse" x="280.175" y="85.048" width="157.825" height="219.844"><path d="M438 85.04H280.17v219.85H438V85.04Z" fill="#000" fill-rule="evenodd"/></mask><g mask="url(#c)"><path d="M280.93 137.18c8.11 40.16 146.01 101.69 152.64 167.71 7.11-17.75 5.74-38.26-4.77-55.08-8.92-14.26-21.15-24.79-27.47-36.49-12.04-22.28 51.6-78.62 10.18-114.21-14.61-12.56-45.76-15.46-79.74-13.51-10.34 2.36-58.16 15.33-50.84 51.58Z" fill="#FFF" fill-rule="evenodd" opacity=".152" style="mix-blend-mode:normal"/></g><path d="M88.17 326a22.01 22.01 0 0 0 3.64 15.22c22.43 32.67 144.5 43.57 227.14 36.91 43.14-3.48 78.5-25.71 100.05-50.22L88.17 326Z" fill="#000" fill-rule="evenodd" opacity=".149" style="mix-blend-mode:normal"/><path d="M366.37 329.81s10.08.61 9.92 3.66c-.15 3.05-6.51 9.76-6.51 9.76l9.51-3.41 28.71-1.09-3.11 2.67s-23.12 1.06-24.15 1.88c-1.04.81-14.27 10.77-16.54 11.18-2.28.41-146.69.22-146.69.22s-14.86.59-17.34-3.98c-2.48-4.58-11.47-4.27-13.95-.31-2.48 3.97-2.14 18.61-2.14 18.61s-6.79-1.78-7.16-1.94C153.35 357.1 127 326 127 326l239.37 3.81Z" fill="#000" fill-rule="evenodd" opacity=".128" style="mix-blend-mode:normal"/><path d="m397 290.69-14.46 49.16s-2.05 2.45-3.54.18l9.71-50.03 8.29.69ZM416.86 289l7.14 33.13-3.4 3.87-9.6-36.05 5.86-.95Z" fill="#162F44" fill-rule="evenodd"/><path d="m204.5 300.08-6.02 34.2-1 5.67 2.19.32.16.02 4.78.71s15.98-39.35 17.33-48.79C223.3 282.77 196.8 245 196.8 245l-28.77 2.44c-.76 8.22 10.75 23.72 21.03 35.77 8.1 9.5 15.44 16.87 15.44 16.87Z" fill="#F4F2F9" fill-rule="evenodd"/><path d="m204.11 298.53-6.87 39.77 2.14.32.08.38s.02-.13.08-.36c.87-3.83 11.14-37.73 11.45-44.64.33-7.33-14.03-30-14.03-30L189 281.71c7.93 9.47 15.11 16.82 15.11 16.82Z" fill="#E0DFEA" fill-rule="evenodd"/><path d="m166 249 28.66-2.39 1.34-47.73S189 174 181.33 174c-4.55 0-8.99 1.8-11.7 6.19-1.85 3-2.9 7.22-2.63 12.9.61 12.77-.73 48.9-.97 55.02l-.03.89Z" fill="#6397D9" fill-rule="evenodd"/><path d="m173.88 245.27-.54-56.82 6.66-13.52-7.77-.93-2.73 3.21c-1.79 3-2.8 7.21-2.54 12.89.59 12.77-.74 49.78-.96 55.9l7.88-.73Z" fill="#8BBFF7" fill-rule="evenodd"/><path d="m174 190 21.01 40 .55-18 .44-14.59-17.53-7.41H174Z" fill="#306299" fill-rule="evenodd"/><path d="M227.67 353h128.65c4.79 0 8.68-3.91 8.68-8.73V123.73c0-4.83-3.89-8.73-8.68-8.73H227.67c-4.79 0-8.67 3.9-8.67 8.73v220.54c0 4.82 3.88 8.73 8.67 8.73Z" fill="#FFF" fill-rule="evenodd"/><path d="M227 146.29v88.41c0 1.82 1.45 3.3 3.25 3.3h123.49c1.8 0 3.26-1.48 3.26-3.3v-88.41c0-1.82-1.46-3.29-3.26-3.29H230.25c-1.8 0-3.25 1.47-3.25 3.29Z" fill="#E4DCF1" fill-rule="evenodd"/><path d="m291.14 167 1.55 1.18 3.31 14.37-.08 2.37-5.22.08c-.36 0-.72-.07-1.03-.26-1.5-.87-2.14-3.32-1.31-5.49.44-1.16 1.58-3.23 1.71-4.14.32-2.18 1.07-8.11 1.07-8.11Z" fill="#8E2B43" fill-rule="evenodd"/><path d="m264 241 54.22-.21 1.79-.01s6.49-30.65-4.01-42.46c-2.56-2.87-5.88-4.99-9.51-6.37-11.27-4.3-25.45-1.45-28.49 7.97-4.02 12.45-14 41.08-14 41.08Z" fill="#4EC9B4" fill-rule="evenodd"/><path d="M306.16 192.48s-2.22 6.03-7.11 7.3c-4.89 1.27-10.49-3.23-10.03-8.46 0 0 4.69-.69 5.45-2.96.93-2.76.31-2.85.31-2.85s-1.84-3.49-2.45-6.03c-.61-2.54.31-12.37 4.58-13.32 2.71-.6 7.03.32 10.09 4.76 0 0-1.53 8.56-3.67 12.68-2.14 4.13-3.21 6.03 2.83 8.88Z" fill="#FA9E89" fill-rule="evenodd"/><path d="M230.16 116.01 363 302.23v42.25c0 4.7-3.7 8.52-8.27 8.52H234.57c-5.29 0-9.57-4.42-9.57-9.87V119.82c0-2.93 2.33-3.95 5.16-3.81Z" fill="#F4F2F9" fill-rule="evenodd" opacity=".184" style="mix-blend-mode:normal"/><path d="M270 222.44 263.01 192 252 193.81 262.68 238l7.32-15.56Z" fill="#4EC9B4" fill-rule="evenodd"/><path d="m260.79 191.13-.59-3.1s1.8-1.19 1.5-2.96c-.3-1.78.3-5.92.3-5.92s-.96-.65-1.58.52c-.44.83-1.13 2.74-1.13 2.74s-2.29-6.17-2.82-7.8c-.23-.69-.45-1.76-.98-1.6-.27.09-.17.72-.12 1.33.14 1.85.92 4.79.92 4.79l-.4.23-1.66-5.28c-.07-.25-.19-.64-.46-.66-.24-.02-.48.11-.48.7 0 1.19 1.28 6.08 1.28 6.08l-.32.22-1.93-4.28c-.14-.32-.62-.29-.7.04-.06.27-.05.65.17 1.2.6 1.48 1.2 3.84 1.2 3.84l-.15.17-1.05-2.17c-.18-.34-.65-.57-.78-.2-.19.52 1.46 4.98 1.46 5.27 0 .3 1.12 4.33 2.32 4.62 1.2.3 1.28 3.09 1.28 3.09l4.72-.87Z" fill="#FA9E89" fill-rule="evenodd"/><path d="M330.35 264h22.29c1.3 0 2.36-1.08 2.36-2.4v-3.21c0-1.32-1.06-2.39-2.36-2.39h-22.29c-1.3 0-2.35 1.07-2.35 2.39v3.21c0 1.32 1.05 2.4 2.35 2.4ZM298.35 264h22.29c1.3 0 2.36-1.08 2.36-2.4v-3.21c0-1.32-1.06-2.39-2.36-2.39h-22.29c-1.3 0-2.35 1.07-2.35 2.39v3.21c0 1.32 1.05 2.4 2.35 2.4ZM264.35 264h22.29c1.3 0 2.36-1.08 2.36-2.4v-3.21c0-1.32-1.06-2.39-2.36-2.39h-22.29c-1.3 0-2.35 1.07-2.35 2.39v3.21c0 1.32 1.05 2.4 2.35 2.4ZM232.35 264h22.29c1.3 0 2.36-1.08 2.36-2.4v-3.21c0-1.32-1.06-2.39-2.36-2.39h-22.29c-1.3 0-2.35 1.07-2.35 2.39v3.21c0 1.32 1.05 2.4 2.35 2.4Z" fill="#FFDEDD" fill-rule="evenodd"/><path d="M234.54 283h117.91c1.41 0 2.55-1.08 2.55-2.42v-3.17c0-1.34-1.14-2.41-2.55-2.41H234.54c-1.4 0-2.54 1.07-2.54 2.41v3.17c0 1.34 1.14 2.42 2.54 2.42ZM352.45 299c1.41 0 2.55-1.08 2.55-2.42v-3.17c0-1.34-1.14-2.41-2.55-2.41H234.54c-1.4 0-2.54 1.07-2.54 2.41v3.17c0 1.34 1.14 2.42 2.54 2.42h117.91ZM234.54 315h117.91c1.41 0 2.55-1.08 2.55-2.42v-3.17c0-1.34-1.14-2.41-2.55-2.41H234.54c-1.4 0-2.54 1.07-2.54 2.41v3.17c0 1.34 1.14 2.42 2.54 2.42ZM234.54 328h117.91c1.41 0 2.55-1.08 2.55-2.42v-3.17c0-1.34-1.14-2.41-2.55-2.41H234.54c-1.4 0-2.54 1.07-2.54 2.41v3.17c0 1.34 1.14 2.42 2.54 2.42Z" fill="#F4F2F9" fill-rule="evenodd"/><path d="M309.22 163.32s-6.3-8.85-18.19-3.73c-11.89 5.12 1.01 13.51 1.01 13.51s.26-3.26 2.14-4.2l-.15 2.9 6.65 1.17 1.07-2.8.68 3.18 3.36 1.25s-2.75 9.62-4.35 11.02c0 0-.68 2.25-.45 2.71.23.47 10.36 3.03 11.66.7 1.29-2.33-1.38-5.59-2.21-7.76-.84-2.17 1.52-13.71-1.22-17.95Z" fill="#FC516B" fill-rule="evenodd"/><path d="M338.35 139h17.29c1.3 0 2.36-1.35 2.36-3 0-1.66-1.06-3-2.36-3h-17.29c-1.3 0-2.35 1.34-2.35 3 0 1.65 1.05 3 2.35 3Z" fill="#E4DCF1" fill-rule="evenodd"/><path d="M312 211s-2.67 19.28-5.71 27h-16.07s-2.64-8.14 10.05-10.8C309.1 225.34 312 211 312 211ZM280.38 206s-3.25 10-2.64 13c.61 3 3.26 5.2 3.26 7.2s-1.63 9.6-1.63 9.6l-9.37.2s1.55-.27 5.09-3.05c5.4-4.25.76-13.63 1.91-18.95.6-2.8 3.38-8 3.38-8ZM270 221.77s-.22 8.38-1.92 7.09c-1.7-1.29-.64-13.76-2.13-18.06-1.49-4.29-5.95-18.05-5.95-18.05l3.82-.75 6.18 29.77Z" fill="#44AD99" fill-rule="evenodd"/><path d="M244.62 183.47s-1.58.69-3.5 3.05c-.64.78-4.03 2.02-4.83 2.98-11.65 14.02-27.2 24.85-37.17 20.54-12.73-5.5-15.12-10.62-15.12-10.62l8.41-11.36s9.66 14.76 17.43 10.74c7.78-4.02 23.1-14.56 23.1-14.56l.4-6.46s.9-.24 1.33.99c.43 1.24.45 2.3.45 2.3l6.04-7.02s1.17-.36.81.77c-.35 1.13-2.49 4.37-2.49 4.37s-.22.61.24.33c.54-.32 4.77-5.09 4.77-5.09s.97-.06.58.87c-.31.71-2.87 4.09-3.73 5.35-.26.38.28.24.28.24l3.49-2.97c.48-.32.97-.22.87.36-.07.46-1.02 1.52-1.59 1.94-1.41 1.05-2.4 2.95-2.4 2.95l3.05-1.09s.59.52-.42 1.39ZM173 146.49l3.85 28.32 12.64 2.19s-.64-.67-1.37-1.57c-.75-.9-1.59-2.04-1.96-2.96-.85-2.1-.86-4.07-.86-4.07s5.61.64 6.48-2.59c.87-3.23-1.15-18.29-1.15-18.29s-2.5-9.45-17.63-1.03Z" fill="#FA9E89" fill-rule="evenodd"/><path d="M183.61 146.81s6.23 4.71 12.22.69c0 0-3.79-.34-4.97-2.26 0 0 2.35.61 5.14-3.32 0 0-4.89.7-6.58-.78-1.68-1.48-10.28-3.84-15.42-.26-5.14 3.57-5.05 6.19-5.05 6.19s-3.04 1.13-2.95 2.88c.08 1.74 7.5 16.05 7.5 16.05l1.6-6.37s-1.27.38-2.02-2.59c-.76-2.96 2.52-1.69 2.86-1.07.34.61 2.53-4.19 2.53-4.19l-.34-2.79s-1.09-3.58 5.48-2.18Z" fill="#261F27" fill-rule="evenodd"/><path d="M171.78 279.38c3.59 14.49-3.05 72.41-3.05 72.41l6.5 1.21c26.16-60.02 20.18-109 20.18-109L166 246.41s.07-1.22.1-.94c.34 3.01 2.41 20.69 5.68 33.91Z" fill="#FFF" fill-rule="evenodd"/><path d="m204.27 337.07 7.55 5.86s2.97-.36 3.55 1.02c.57 1.37.63 2.93.63 2.93l-7.9.12-13.1-5.21 2.06-5.79 7.21 1.07ZM174.44 354.34s2.68 4.32 5.37 7.85c.91 1.18 3.12 1.7 3.98 4.59.74 2.49-.74 4.22-.74 4.22s-4.97-.9-8.42-3.96c-3.45-3.07-8.63-8.94-8.63-8.94l1.41-5.1 7.03 1.34Z" fill="#6397D9" fill-rule="evenodd"/><path d="M374 282c0 3.86 12.98 7 29 7 16.01 0 29-3.14 29-7 0-3.87-12.99-7-29-7-16.02 0-29 3.13-29 7Z" fill="#224A7D" fill-rule="evenodd"/><path d="M374 281c0 3.86 12.98 7 29 7 16.01 0 29-3.14 29-7 0-3.87-12.99-7-29-7-16.02 0-29 3.13-29 7Z" fill="#6397D9" fill-rule="evenodd"/><path d="M395 277c0 1.65 5.37 3 12 3 6.62 0 12-1.35 12-3 0-1.66-5.38-3-12-3-6.63 0-12 1.34-12 3ZM432 280v3.98s-.07 2.47-5 4.02l1.17-4.32s3.47-1.5 3.83-3.68Z" fill="#162F44" fill-rule="evenodd"/><path d="M374 280v4.08s-.39 2.04 5 3.92l-1.66-4.77s-2.86-1.28-3.34-3.23Z" fill="#8CC5F2" fill-rule="evenodd"/><path d="m393 267.03 1.96 7.69c.49 1.92 2.43 3.28 4.66 3.28h4.23c1.58 0 3.02-.69 3.9-1.78.3-.38.54-.81.69-1.27l1.71-5.32.85-2.63-18 .03Z" fill="#FC516B" fill-rule="evenodd"/><path d="M393 266c0 .55 4.02 1 9 1 4.97 0 9-.45 9-1 0-.56-4.03-1-9-1-4.98 0-9 .44-9 1Z" fill="#9B293F" fill-rule="evenodd"/><path d="M405.4 276.65c-.35.14-.69.26-1 .35l2.11-.33c.29-.4.51-.86.66-1.35l1.61-5.61c.09-.27.22-.7.22-.71 0 0-4.22 1.24-8 .81 1.23.17 4.31.42 6.16.32.46-.02.83.37.77.82-.24 1.65-.91 5.07-2.53 5.7Z" fill="#F995A9" fill-rule="evenodd"/><path d="m401 263.9.67 3.08.5.02s.03-3.1 3.67-5c3.65-1.9 3.13-9 3.13-9-.09.19-1.49 3.1-2.55 3.29-1.1.21-1.78 1.96-1.78 1.96s-.52.75-1.14.6c-.63-.15-1.25 1.5-1.25 1.5l-.21 1.75-1.04 1.8Z" fill="#51A595" fill-rule="evenodd"/><path d="M405.99 269.98s.7-23.43-11.6-29.98c0 0-3.5 1.35.6 6.96 4.1 5.62.8 9.67 2.6 11.13 1.8 1.45 4.4 2.39 4 4.26-.4 1.87.1 3.75.9 3.95.8.21 2.6 1.32 2.88 3.7l.62-.02Z" fill="#4EC9B4" fill-rule="evenodd"/><path d="m406 265.79.04 1.19.53.02s.03-3.1 4-5 3.4-9 3.4-9h-.01l-.33 1.07c0 6.45-3.73 7.79-5.21 8.65-1.49.86-2.42 3.07-2.42 3.07Z" fill="#41877A" fill-rule="evenodd"/><path d="M186.18 177.1s-10.55.17-11.49-1.1l-.69 1.89s8.36 4.56 14 2.63l-1.82-3.42Z" fill="#306299" fill-rule="evenodd"/><path d="M201 190.91 188.41 205s-16.82-15.09-16.41-19.81c.42-4.73 6.58-14.52 16.04-5.53 9.2 8.75 12.96 11.25 12.96 11.25Z" fill="#8CC5F2" fill-rule="evenodd"/><path d="m168.56 352.65 2.57.35s12.02-42.47 8.07-73.85c-1.19-9.44-5.35-33.15-5.35-33.15l-7.85.73c.31 3.03 2.35 19.86 5.42 33.14 3.37 14.56-2.86 72.78-2.86 72.78Z" fill="#F4F2F9" fill-rule="evenodd"/><path d="M182.25 175.55c1.49.33 2.3.43 2.75.45-.7-.97-1.49-2.19-1.84-3.16-.79-2.24-.8-4.33-.8-4.33s-2.97-.78-3.27-.42c-.31.37 0 6.77 3.16 7.46Z" fill="#E6846F" fill-rule="evenodd"/><path d="M328 179c0 10.49 8.04 19 17.97 19 4.15 0 7.98-1.5 11.03-4v-30.01c-3.05-2.5-6.88-3.99-11.03-3.99-9.93 0-17.97 8.5-17.97 19Z" fill="#CEC3E2" fill-rule="evenodd"/><path d="M328 179.5c0 10.21 7.49 18.5 16.73 18.5 3.87 0 7.43-1.46 10.27-3.9v-29.21c-2.84-2.44-6.4-3.89-10.27-3.89-9.24 0-16.73 8.28-16.73 18.5Z" fill="#C3B8D8" fill-rule="evenodd"/><path d="M302 196.09s1.98-1.1 2.29-1.3c.32-.2 4.39.9 9.83 6.51 5.43 5.62.73 10.33 3.03 13.33 2.3 3.01.1 9.33-1.05 13.64-1.15 4.31 0 9.72 0 9.72l.06.01 1.82-.01s6.59-28.87-4.07-40c-2.6-2.7-5.97-4.7-9.65-5.99l-2.26 4.09Z" fill="#44AD99" fill-rule="evenodd"/></svg>